<?xml version="1.0" encoding="UTF-8" standalone="no"?>
<!-- Created with Inkscape (http://www.inkscape.org/) -->

<svg
   width="210mm"
   height="297mm"
   viewBox="0 0 210 297"
   version="1.1"
   id="svg5"
   inkscape:version="1.1.1 (3bf5ae0d25, 2021-09-20)"
   sodipodi:docname="Portada.svg"
   xmlns:inkscape="http://www.inkscape.org/namespaces/inkscape"
   xmlns:sodipodi="http://sodipodi.sourceforge.net/DTD/sodipodi-0.dtd"
   xmlns="http://www.w3.org/2000/svg"
   xmlns:svg="http://www.w3.org/2000/svg">
  <sodipodi:namedview
     id="namedview7"
     pagecolor="#ffffff"
     bordercolor="#666666"
     borderopacity="1.0"
     inkscape:pageshadow="2"
     inkscape:pageopacity="0.0"
     inkscape:pagecheckerboard="0"
     inkscape:document-units="mm"
     showgrid="false"
     inkscape:zoom="1.4289282"
     inkscape:cx="423.74417"
     inkscape:cy="268.03306"
     inkscape:window-width="1920"
     inkscape:window-height="974"
     inkscape:window-x="-11"
     inkscape:window-y="-11"
     inkscape:window-maximized="1"
     inkscape:current-layer="layer1">
    <inkscape:grid
       type="xygrid"
       id="grid17994" />
  </sodipodi:namedview>
  <defs
     id="defs2">
    <marker
       style="overflow:visible;"
       id="Arrow1Mend"
       refX="0.0"
       refY="0.0"
       orient="auto"
       inkscape:stockid="Arrow1Mend"
       inkscape:isstock="true">
      <path
         transform="scale(0.4) rotate(180) translate(10,0)"
         style="fill-rule:evenodd;fill:context-stroke;stroke:context-stroke;stroke-width:1.0pt;"
         d="M 0.0,0.0 L 5.0,-5.0 L -12.5,0.0 L 5.0,5.0 L 0.0,0.0 z "
         id="path17165" />
    </marker>
    <clipPath
       clipPathUnits="userSpaceOnUse"
       id="clipPath1699">
      <rect
         style="opacity:1;fill:none;fill-opacity:1;stroke:#0000ff;stroke-width:0.688999;stroke-miterlimit:4;stroke-dasharray:none;stroke-opacity:1"
         id="rect1701"
         width="40.735661"
         height="37.958229"
         x="140.16771"
         y="30.181421" />
    </clipPath>
    <clipPath
       clipPathUnits="userSpaceOnUse"
       id="clipPath4430">
      <ellipse
         style="opacity:0.467049;fill:#093d71;fill-opacity:1;stroke:#000000;stroke-width:1.15286"
         id="ellipse4432"
         cx="91.74781"
         cy="162.75748"
         rx="24.937208"
         ry="24.103973" />
    </clipPath>
    <clipPath
       clipPathUnits="userSpaceOnUse"
       id="clipPath4430-9">
      <ellipse
         style="opacity:0.467049;fill:#093d71;fill-opacity:1;stroke:#000000;stroke-width:1.15286"
         id="ellipse4432-4"
         cx="91.74781"
         cy="162.75748"
         rx="24.937208"
         ry="24.103973" />
    </clipPath>
    <clipPath
       clipPathUnits="userSpaceOnUse"
       id="clipPath4430-9-0">
      <ellipse
         style="opacity:0.467049;fill:#093d71;fill-opacity:1;stroke:#000000;stroke-width:1.15286"
         id="ellipse4432-4-1"
         cx="91.74781"
         cy="162.75748"
         rx="24.937208"
         ry="24.103973" />
    </clipPath>
    <clipPath
       clipPathUnits="userSpaceOnUse"
       id="clipPath4430-2">
      <ellipse
         style="opacity:0.467049;fill:#093d71;fill-opacity:1;stroke:#000000;stroke-width:1.15286"
         id="ellipse4432-1"
         cx="91.74781"
         cy="162.75748"
         rx="24.937208"
         ry="24.103973" />
    </clipPath>
  </defs>
  <g
     inkscape:label="Capa 1"
     inkscape:groupmode="layer"
     id="layer1"
     style="display:inline">
    <text
       xml:space="preserve"
       style="font-size:3.52777px;line-height:1.25;font-family:'Arial Rounded MT Bold';-inkscape-font-specification:'Arial Rounded MT Bold, ';stroke-width:0.264583"
       x="146.83354"
       y="96.284286"
       id="text11279"><tspan
         sodipodi:role="line"
         id="tspan11277"
         style="stroke-width:0.264583"
         x="146.83354"
         y="96.284286"></tspan></text>
    <g
       id="g59263">
      <rect
         style="fill:none;stroke:#0a3b71;stroke-width:0.681316;stroke-miterlimit:4;stroke-dasharray:none;stroke-opacity:1"
         id="rect846"
         width="179.45337"
         height="121.07921"
         x="19.611532"
         y="13.789355" />
      <rect
         style="fill:#093d71;fill-opacity:1;stroke:#083c70;stroke-width:0.773306;stroke-miterlimit:4;stroke-dasharray:none;stroke-opacity:1"
         id="rect1461"
         width="114.77664"
         height="10.811764"
         x="19.82382"
         y="38.236244" />
      <text
         xml:space="preserve"
         style="font-style:normal;font-weight:normal;font-size:6.12435px;line-height:1.25;font-family:sans-serif;display:inline;fill:#ffffff;fill-opacity:1;stroke:#ffffff;stroke-width:0.255181;stroke-opacity:1"
         x="26.45105"
         y="43.737499"
         id="text51647-2"
         transform="scale(0.96446449,1.0368448)"><tspan
           sodipodi:role="line"
           id="tspan51645-6"
           style="font-style:normal;font-variant:normal;font-weight:normal;font-stretch:normal;font-size:6.12435px;font-family:'Comic Sans MS';-inkscape-font-specification:'Comic Sans MS';fill:#ffffff;fill-opacity:1;stroke:#ffffff;stroke-width:0.255181;stroke-opacity:1"
           x="26.45105"
           y="43.737499">Semillero de Investigación ALTENUA</tspan></text>
      <path
         style="fill:#d6b861;fill-opacity:1;stroke-width:0.178958"
         d="m 49.231103,196.38081 c -0.74155,-0.55071 -0.90666,-1.2003 -0.90666,-3.56707 v -2.21452 l -0.47795,-0.27491 c -0.45686,-0.26279 -0.41661,-0.27469 0.91244,-0.26982 1.134,0.004 1.31758,0.0423 0.99556,0.20684 -0.54029,0.27608 -0.6231,0.77665 -0.51788,3.13043 0.11204,2.50628 0.3158,2.83287 1.73851,2.78665 0.76554,-0.0249 0.9622,-0.10867 1.29742,-0.55281 0.36222,-0.47992 0.39519,-0.71054 0.39598,-2.77038 8.1e-4,-2.11348 -0.0221,-2.2639 -0.38541,-2.53372 -0.36764,-0.27303 -0.33623,-0.28639 0.65174,-0.27719 0.99438,0.009 1.02158,0.0218 0.64697,0.29888 -0.36647,0.27104 -0.39105,0.42043 -0.39105,2.37719 0,2.25049 -0.15219,2.87417 -0.86061,3.52679 -0.35764,0.32946 -0.66119,0.40926 -1.57733,0.41461 -0.75537,0.004 -1.26388,-0.0895 -1.52173,-0.28097 z m 5.17626,0.18897 c 0,-0.0542 0.12615,-0.30275 0.28034,-0.55225 0.40651,-0.65781 0.27677,-2.98772 -0.18151,-3.25964 -0.29173,-0.1731 -0.26847,-0.21545 0.24378,-0.44381 0.7216,-0.3217 0.87397,-0.31752 0.87397,0.024 0,0.36198 0.15594,0.3472 0.75501,-0.0716 0.27187,-0.19005 0.64575,-0.30355 0.83085,-0.25223 0.64256,0.17816 0.84731,0.77364 0.84731,2.46419 0,1.25021 0.0567,1.6208 0.2607,1.7038 0.55163,0.22443 0.22416,0.48617 -0.6083,0.48617 -0.83245,0 -1.15993,-0.26174 -0.60829,-0.48617 0.20065,-0.0816 0.2607,-0.43449 0.2607,-1.53197 0,-1.20362 -0.0556,-1.4792 -0.35641,-1.76787 -0.3339,-0.32039 -0.38602,-0.32297 -0.82554,-0.0409 -0.43609,0.27989 -0.47275,0.40171 -0.52047,1.72951 -0.0408,1.13661 0.004,1.46098 0.21725,1.58779 0.50981,0.30249 0.2658,0.50959 -0.6004,0.50959 -0.47795,0 -0.86899,-0.0444 -0.86899,-0.0986 z m 4.92423,-0.23594 c 0.3959,-0.46383 0.5262,-1.31591 0.38477,-2.5161 -0.0826,-0.7007 -0.19761,-1.01903 -0.36827,-1.01903 -0.44575,0 -0.26105,-0.28958 0.32899,-0.5158 0.31745,-0.12171 0.63028,-0.22129 0.69519,-0.22129 0.0649,0 0.11801,0.90328 0.11801,2.00727 0,1.61425 0.051,2.02804 0.2607,2.11334 0.58169,0.23667 0.21109,0.48617 -0.72213,0.48617 -0.93855,0 -0.96996,-0.0151 -0.69726,-0.33456 z m 3.93028,-0.35645 c -0.11546,-0.38006 -0.26365,-0.77394 -0.3293,-0.87529 -0.0657,-0.10135 -0.30853,-0.70315 -0.5397,-1.33733 -0.24424,-0.67004 -0.54983,-1.19664 -0.72948,-1.2571 -0.55919,-0.18817 -0.12622,-0.44605 0.74892,-0.44605 0.78844,0 1.1543,0.23338 0.64696,0.41268 -0.2432,0.0859 0.0772,1.33612 0.56692,2.21188 l 0.28262,0.50545 0.19128,-0.41331 c 0.25226,-0.54507 0.90893,-2.19189 0.90893,-2.27944 0,-0.0378 -0.12193,-0.0687 -0.27095,-0.0687 -0.14903,0 -0.22262,-0.0829 -0.16354,-0.18427 0.13339,-0.22885 1.0744,-0.24393 1.20532,-0.0193 0.0529,0.0907 -0.0131,0.2094 -0.14657,0.26372 -0.13351,0.0543 -0.39874,0.53981 -0.58942,1.07886 -0.62145,1.75693 -1.22875,3.09923 -1.40218,3.09923 -0.0934,0 -0.26435,-0.31096 -0.37981,-0.69101 z m 3.71094,0.2764 c -1.15262,-1.34173 -0.94247,-3.19072 0.46229,-4.06746 0.54428,-0.33969 1.57127,-0.29119 1.57127,0.0742 0,0.0933 0.10419,0.16963 0.23153,0.16963 0.12735,0 0.31341,0.28282 0.41347,0.62849 l 0.18192,0.62848 -1.18528,0.12621 c -0.6519,0.0694 -1.26142,0.0763 -1.3545,0.0153 -0.26532,-0.17386 -0.33122,0.2909 -0.13659,0.96329 0.16895,0.58366 0.83454,1.13937 1.36465,1.13937 0.12521,0 0.45402,-0.22254 0.73068,-0.49454 l 0.50302,-0.49454 -0.12282,0.51886 c -0.27693,1.16988 -1.91596,1.65839 -2.65964,0.79269 z m 1.76849,-2.89477 c 0.19474,-0.33408 -0.32612,-0.92885 -0.81341,-0.92885 -0.44698,0 -0.8333,0.42151 -0.8333,0.90924 0,0.24474 1.50503,0.26266 1.64671,0.0196 z m 1.48165,3.11933 c 0,-0.10453 0.11732,-0.23779 0.2607,-0.29612 0.20469,-0.0833 0.2607,-0.45814 0.2607,-1.7448 0,-1.33379 -0.0485,-1.63872 -0.2607,-1.63872 -0.44027,0 -0.27994,-0.26124 0.35326,-0.57558 0.56655,-0.28126 0.69502,-0.22909 0.62321,0.2531 -0.0341,0.22911 0.16164,0.15793 0.62232,-0.22628 0.34037,-0.28387 0.51213,-0.32187 0.77654,-0.17184 0.53651,0.30444 0.32283,0.81273 -0.34167,0.81273 -0.75177,0 -0.89815,0.30354 -0.90131,1.86907 -0.002,1.00188 0.0596,1.34158 0.25803,1.42232 0.57487,0.23389 0.21412,0.48617 -0.69519,0.48617 -0.54079,0 -0.95589,-0.0825 -0.95589,-0.19005 z m 3.30216,-0.54703 c 0,-0.4054 0.0782,-0.73709 0.1738,-0.73709 0.0956,0 0.17379,0.0829 0.17379,0.18427 0,0.34474 0.69369,0.92136 1.10841,0.92136 0.22727,0 0.50549,-0.11789 0.61827,-0.26197 0.29828,-0.38106 -0.0439,-0.86974 -0.97632,-1.39417 -0.89612,-0.50405 -1.162,-0.93204 -1.01621,-1.63583 0.13303,-0.64221 0.98601,-1.20871 1.52797,-1.01481 0.21393,0.0765 0.52583,0.11807 0.69311,0.0923 0.24701,-0.0381 0.30415,0.0937 0.30415,0.70177 0,0.41177 -0.0371,0.74867 -0.0824,0.74867 -0.0453,0 -0.20377,-0.24877 -0.35206,-0.55281 -0.22109,-0.45331 -0.37831,-0.55282 -0.87345,-0.55282 -0.52186,0 -0.60383,0.0602 -0.60383,0.44317 0,0.33514 0.20124,0.56597 0.82554,0.94693 1.17627,0.71779 1.43383,0.99706 1.43383,1.55468 0,0.85152 -0.64219,1.29346 -1.87953,1.29346 h -1.07503 z m 3.64975,0.54703 c 0,-0.10453 0.11732,-0.23779 0.2607,-0.29612 0.20433,-0.0831 0.2607,-0.45575 0.2607,-1.7233 0,-1.51995 -0.0235,-1.62421 -0.39105,-1.73312 -0.35623,-0.10557 -0.32915,-0.14617 0.30415,-0.45594 0.38235,-0.18702 0.72415,-0.31424 0.75954,-0.28269 0.0354,0.0315 0.0514,0.91858 0.0355,1.9712 -0.023,1.52827 0.0253,1.96148 0.23979,2.15023 0.46246,0.40694 0.29852,0.55979 -0.60036,0.55979 -0.48109,0 -0.86899,-0.0848 -0.86899,-0.19005 z m 3.23878,-0.0819 c -1.23769,-0.99391 -0.96159,-3.41316 0.48228,-4.22593 0.50665,-0.2852 0.70592,-0.31268 1.05271,-0.14515 0.23526,0.11365 0.46436,0.14384 0.5091,0.0671 0.14369,-0.24652 -0.10646,-1.67517 -0.28636,-1.63546 -0.0955,0.0211 -0.20307,-0.045 -0.23907,-0.14683 -0.0727,-0.20564 0.98205,-0.61188 1.29838,-0.50008 0.14088,0.0498 0.2009,0.95494 0.2009,3.02974 0,2.51776 0.0421,2.99135 0.28226,3.17756 0.24692,0.19144 0.21179,0.24978 -0.28065,0.46605 -0.4308,0.18919 -0.6379,0.19755 -0.88249,0.0356 -0.2031,-0.13449 -0.35794,-0.14583 -0.4248,-0.0311 -0.15727,0.2698 -1.34112,0.20656 -1.71226,-0.0915 z m 1.99053,-0.67985 c 0.24836,-0.49202 0.11349,-2.62335 -0.19058,-3.01181 -0.30745,-0.39279 -0.93274,-0.33885 -1.31859,0.11373 -0.46993,0.55121 -0.45639,2.32278 0.022,2.87289 0.46041,0.52949 1.22611,0.54246 1.48721,0.0252 z m 2.01094,0.399 c -0.2902,-0.52088 -0.29104,-0.58323 -0.0146,-1.0794 0.16269,-0.29202 0.71563,-0.75328 1.24126,-1.03547 0.7959,-0.42729 0.93194,-0.57183 0.8485,-0.90151 -0.0547,-0.21595 -0.10045,-0.45483 -0.10175,-0.53084 -0.001,-0.076 -0.23896,-0.1382 -0.52811,-0.1382 -0.44257,0 -0.54188,0.0856 -0.6278,0.54103 -0.10593,0.56161 -0.49263,0.87117 -0.68214,0.54607 -0.23169,-0.39747 0.1192,-1.10394 0.69221,-1.39365 0.67317,-0.34036 1.24184,-0.24342 1.79867,0.3066 0.34273,0.33854 0.38758,0.56578 0.38758,1.96347 0,1.48989 0.02,1.57508 0.3476,1.48424 0.45275,-0.12553 0.43962,0.005 -0.0434,0.43233 -0.49205,0.43522 -0.81325,0.4464 -1.09483,0.0381 -0.20956,-0.30386 -0.23756,-0.30386 -0.55424,0 -0.54279,0.52083 -1.30853,0.41402 -1.66889,-0.23278 z m 1.75856,-0.28685 c 0.28998,-0.21535 0.38627,-0.47109 0.38627,-1.02591 0,-0.68102 -0.0307,-0.72913 -0.39104,-0.61271 -0.61905,0.20002 -0.99934,0.65143 -0.99934,1.18623 0,0.80105 0.33275,0.95097 1.00411,0.45239 z m 2.87145,0.42505 c -1.10884,-1.29077 -0.90979,-2.98425 0.46612,-3.9656 0.58216,-0.41522 0.75893,-0.43126 1.44754,-0.13137 0.28204,0.12283 0.30901,0.044 0.2607,-0.76225 -0.0359,-0.59828 -0.12661,-0.88383 -0.27115,-0.85318 -0.11948,0.0253 -0.21724,-0.0601 -0.21724,-0.18994 0,-0.26184 1.00815,-0.7298 1.24205,-0.57652 0.0816,0.0535 0.14833,1.45164 0.14833,3.10708 0,2.69602 0.0317,3.02293 0.30414,3.13506 0.26716,0.10995 0.25131,0.15637 -0.13034,0.38172 -0.54578,0.32226 -0.9901,0.33822 -1.09348,0.0393 -0.0637,-0.18427 -0.12572,-0.18427 -0.30994,0 -0.38792,0.38802 -1.44578,0.28247 -1.84673,-0.18427 z m 1.9988,-0.35932 c 0.31287,-0.33173 0.26774,-2.55563 -0.062,-3.05476 -0.33922,-0.51348 -0.96611,-0.52652 -1.39084,-0.0289 -0.50363,0.59006 -0.45161,2.22473 0.0903,2.83629 0.44448,0.50163 1.02361,0.60678 1.36257,0.24739 z m 4.95311,0.35932 c -1.10884,-1.29077 -0.90979,-2.98425 0.46612,-3.9656 0.58216,-0.41522 0.75893,-0.43126 1.44754,-0.13137 0.28204,0.12283 0.30901,0.044 0.2607,-0.76225 -0.0359,-0.59828 -0.12661,-0.88383 -0.27115,-0.85318 -0.11948,0.0253 -0.21724,-0.0601 -0.21724,-0.18994 0,-0.26184 1.00815,-0.7298 1.24205,-0.57652 0.0816,0.0535 0.14833,1.45164 0.14833,3.10708 0,2.69602 0.0317,3.02293 0.30414,3.13506 0.26716,0.10995 0.25131,0.15637 -0.13034,0.38172 -0.54578,0.32226 -0.9901,0.33822 -1.09348,0.0393 -0.0637,-0.18427 -0.12572,-0.18427 -0.30994,0 -0.38792,0.38802 -1.44578,0.28247 -1.84673,-0.18427 z m 2.02745,-0.49463 c 0.28026,-0.55523 0.22153,-2.44691 -0.0906,-2.91945 -0.33922,-0.51348 -0.96611,-0.52652 -1.39084,-0.0289 -0.50363,0.59006 -0.45161,2.22473 0.0903,2.83629 0.49323,0.55665 1.14049,0.6088 1.39122,0.11209 z m 2.694127,0.58575 c -0.53165,-0.48353 -0.833887,-1.42534 -0.727437,-2.2668 0.120907,-0.95574 0.521677,-1.59085 1.229817,-1.94889 0.51232,-0.25903 0.62822,-0.259 1.21373,3.7e-4 0.43704,0.19361 0.72567,0.48355 0.88852,0.89255 l 0.2412,0.60577 -0.8986,0.14763 c -0.49423,0.0812 -1.1066,0.1055 -1.36082,0.054 -0.55391,-0.11219 -0.66908,0.1274 -0.45971,0.95633 0.20806,0.82374 1.14303,1.32879 1.78525,0.96437 0.23893,-0.13557 0.48258,-0.40741 0.54145,-0.60408 0.0771,-0.25743 0.15995,-0.3015 0.29592,-0.15733 0.13598,0.14417 0.041,0.39454 -0.33922,0.89384 -0.44927,0.59003 -0.6422,0.7003 -1.29238,0.73862 -0.52432,0.0309 -0.87525,-0.0559 -1.11772,-0.2764 z m 1.83072,-3.02494 c 0,-0.11871 -0.12943,-0.36748 -0.28763,-0.55282 -0.51854,-0.60751 -1.45034,-0.32678 -1.45034,0.43696 0,0.27517 0.14805,0.33168 0.86898,0.33168 0.54817,0 0.86899,-0.0797 0.86899,-0.21582 z m 5.37547,3.02475 c -0.78301,-0.56306 -1.15237,-1.03931 -1.37642,-1.77473 -0.47017,-1.54333 0.17048,-3.46666 1.41421,-4.24562 0.54157,-0.33919 1.09081,-0.39051 2.97248,-0.27777 l 0.82554,0.0495 v 0.99366 c 0,0.61551 -0.0661,0.95031 -0.17379,0.87977 -0.0956,-0.0626 -0.1738,-0.22601 -0.1738,-0.36304 0,-0.13703 -0.24063,-0.46383 -0.53473,-0.72621 -0.72672,-0.64834 -1.84022,-0.66026 -2.5497,-0.0273 -0.86521,0.7719 -1.16262,2.58046 -0.6451,3.92295 0.37653,0.97674 0.96964,1.38222 2.02186,1.38222 0.74602,0 0.95053,-0.0852 1.45885,-0.60755 0.32517,-0.33415 0.65104,-0.54276 0.72416,-0.46357 0.0731,0.0792 -0.2095,0.4674 -0.62804,0.86269 -0.70917,0.66977 -0.83344,0.71863 -1.82488,0.7175 -0.72345,-7.4e-4 -1.20684,-0.10402 -1.51064,-0.32247 z m 4.82917,-0.21149 c -0.16399,-0.29435 -0.29817,-0.61314 -0.29817,-0.70843 0,-0.35388 0.80805,-1.10938 1.62203,-1.51652 0.69973,-0.35001 0.82342,-0.48537 0.74101,-0.81092 -0.0544,-0.21493 -0.1,-0.45823 -0.10129,-0.54066 -0.001,-0.0824 -0.25655,-0.1239 -0.56722,-0.0921 -0.46575,0.0476 -0.57424,0.1439 -0.61841,0.54889 -0.0624,0.57163 -0.44189,0.79638 -0.72787,0.43103 -0.46898,-0.59913 0.82178,-1.7113 1.7126,-1.47563 0.88386,0.23382 1.06751,0.58498 1.06751,2.04111 0,1.59471 0.0958,1.92136 0.56343,1.92136 0.32423,0 0.31708,0.0295 -0.0895,0.36854 -0.54289,0.45277 -0.92485,0.4694 -1.14627,0.0499 -0.1594,-0.30201 -0.18552,-0.30201 -0.50027,0 -0.53455,0.51291 -1.30746,0.41194 -1.65762,-0.21654 z m 1.74874,-0.30449 c 0.28998,-0.21535 0.38626,-0.47109 0.38626,-1.02591 0,-0.68017 -0.0312,-0.72922 -0.39104,-0.61558 -0.21508,0.0679 -0.5812,0.31847 -0.81362,0.55678 -0.36856,0.37791 -0.3968,0.49327 -0.22097,0.90243 0.23225,0.54046 0.495,0.58654 1.03937,0.18228 z m 2.29804,0.67796 c 0,-0.0889 0.11731,-0.26494 0.2607,-0.39111 0.20679,-0.18197 0.2602,-0.71049 0.25832,-2.55629 -0.002,-2.40785 -0.10016,-3.22457 -0.36498,-3.05103 -0.0847,0.0555 -0.15404,-0.0101 -0.15404,-0.14595 0,-0.2751 0.84388,-0.67438 1.17669,-0.55676 0.1576,0.0557 0.21369,0.87782 0.21369,3.1322 0,2.58568 0.0443,3.1086 0.28763,3.39366 0.27544,0.32269 0.24595,0.33698 -0.69519,0.33698 -0.54055,0 -0.98282,-0.0728 -0.98282,-0.1617 z m 3.02504,-0.29836 c -0.45762,-0.41691 -0.50488,-0.56813 -0.50398,-1.61237 0.001,-1.32823 0.33507,-1.96866 1.28027,-2.45544 0.44373,-0.22852 0.68222,-0.25537 0.98199,-0.11056 0.50817,0.24549 0.60441,0.12828 0.60441,-0.73614 0,-0.65446 -0.12387,-0.80844 -0.58114,-0.72244 -0.0807,0.0152 -0.11535,-0.0719 -0.0771,-0.19356 0.0382,-0.12163 0.3584,-0.32719 0.71148,-0.45679 l 0.64196,-0.23565 v 3.10325 c 0,2.78501 0.0312,3.11607 0.30415,3.22826 0.28344,0.1165 0.28118,0.14293 -0.0332,0.38826 -0.41612,0.3247 -0.91037,0.34069 -1.01681,0.0329 -0.0637,-0.18427 -0.12572,-0.18427 -0.30994,0 -0.39742,0.39752 -1.4456,0.27724 -2.00206,-0.22972 z m 2.15413,-0.31387 c 0.3162,-0.33526 0.26519,-2.46428 -0.0721,-3.01011 -0.35572,-0.57562 -1.031,-0.59384 -1.4671,-0.0396 -0.75721,0.96238 -0.15151,3.27082 0.85822,3.27082 0.25985,0 0.5663,-0.0995 0.68101,-0.22113 z m 2.21965,0.48437 c -0.32765,-0.34739 -0.357,-1.18462 -0.0559,-1.59319 0.11949,-0.16211 0.62785,-0.51834 1.12969,-0.79162 0.91685,-0.49926 1.12497,-0.89628 0.70388,-1.34274 -0.39353,-0.41724 -0.99172,-0.2641 -1.11564,0.28562 -0.15942,0.70714 -0.21604,0.78133 -0.50625,0.66326 -0.47463,-0.19311 -0.29267,-0.93107 0.33023,-1.33924 0.70336,-0.4609 0.84389,-0.46875 1.598,-0.0893 l 0.58481,0.29423 0.0497,1.68668 c 0.0435,1.47509 0.0879,1.68347 0.35389,1.66109 0.37732,-0.0318 0.38925,0.18545 0.031,0.56524 -0.35775,0.37931 -0.7646,0.36738 -1.03897,-0.0305 -0.20955,-0.30385 -0.23756,-0.30385 -0.55423,0 -0.41534,0.39852 -1.14923,0.41333 -1.51033,0.0305 z m 1.66843,-0.56822 c 0.20473,-0.19645 0.31783,-0.56149 0.31783,-1.02591 0,-0.66204 -0.0319,-0.71067 -0.39105,-0.5952 -0.45422,0.14604 -1.17313,0.80078 -1.17313,1.0684 0,0.24954 0.53313,0.85768 0.75189,0.85768 0.0971,0 0.31965,-0.13723 0.49446,-0.30497 z m 2.2296,-0.0124 c 0,-0.86955 1.8e-4,-0.86987 0.28613,-0.41461 0.58428,0.93039 1.35697,1.20516 1.79945,0.63989 0.28443,-0.36338 0.0451,-0.66943 -1.16561,-1.49058 -0.76882,-0.52145 -0.91997,-0.713 -0.91997,-1.1659 0,-0.85305 0.91616,-1.628 1.6142,-1.3654 0.21146,0.0796 0.50179,0.14633 0.64517,0.14841 0.3151,0.005 0.45901,0.97285 0.18739,1.26084 -0.13398,0.14205 -0.18739,0.11754 -0.18739,-0.086 0,-0.72899 -1.40233,-1.23906 -1.63548,-0.59487 -0.1459,0.40311 0.13145,0.71983 1.06171,1.21242 0.83337,0.44128 1.33683,1.20316 1.15442,1.74695 -0.26503,0.79009 -0.6004,0.9791 -1.73727,0.9791 h -1.10275 z m -68.302507,-5.20848 c -0.20189,-0.13631 -0.21722,-0.24996 -0.068,-0.50375 0.27995,-0.476 0.67625,-0.40708 0.67625,0.11761 0,0.50346 -0.22398,0.64565 -0.60829,0.38614 z m 18.11841,0.0474 c -0.29294,-0.10834 -0.27674,-0.72308 0.0223,-0.84474 0.26781,-0.10896 0.62947,0.19891 0.62947,0.53584 0,0.25944 -0.34428,0.42262 -0.65174,0.3089 z m 9.08093,-10.18455 c -0.0646,-0.40539 -0.1953,-0.73708 -0.29045,-0.73708 -0.0951,0 -0.14205,0.0985 -0.10421,0.21882 0.08,0.25437 -0.46582,0.88681 -0.76532,0.88681 -0.11225,0 -0.034,-0.19192 0.1738,-0.42649 0.20784,-0.23457 0.37789,-0.4868 0.37789,-0.56052 0,-0.0737 0.14835,-0.30286 0.32966,-0.5092 0.32928,-0.37474 0.32986,-0.37447 0.50578,0.23805 0.37,1.28821 0.39894,1.6267 0.13904,1.6267 -0.15475,0 -0.29311,-0.27851 -0.36619,-0.73709 z m 6.07284,0.20158 c 0.0535,-0.0918 0.24485,-0.12608 0.42514,-0.0761 0.60416,0.16751 0.55606,-0.28481 -0.0634,-0.59649 -0.73914,-0.37188 -0.81707,-0.92976 -0.16652,-1.192 0.56023,-0.22584 0.54242,-0.2277 0.64941,0.0679 0.0642,0.17737 -0.0292,0.22356 -0.329,0.16278 -0.30267,-0.0614 -0.41863,-0.002 -0.41863,0.21304 0,0.1667 0.14122,0.29789 0.32066,0.29789 0.3396,0 0.89593,0.54028 0.89593,0.87009 0,0.10786 -0.12371,0.24644 -0.27491,0.30796 -0.42131,0.17141 -1.14822,0.13284 -1.03866,-0.0551 z m 12.529317,-0.66839 c -0.48663,-0.51596 -0.61289,-0.79325 -0.60831,-1.33597 0.012,-1.42232 1.46852,-2.37001 2.69186,-1.75149 1.23081,0.62231 1.2818,2.68208 0.0849,3.43168 -0.80045,0.50134 -1.47146,0.39482 -2.1685,-0.34422 z m 2.28412,-0.19201 c 0.96853,-0.95169 0.46976,-2.55029 -0.86749,-2.78038 -0.53445,-0.0919 -0.70035,-0.0267 -1.15367,0.45397 -0.75866,0.80438 -0.6976,1.93755 0.13387,2.48442 0.67522,0.44411 1.33034,0.38925 1.88729,-0.15801 z m -1.76852,-1.18329 c 0,-1.07448 0.0129,-1.10521 0.46373,-1.10571 0.25505,-3.7e-4 0.58744,0.0498 0.73864,0.11133 0.29868,0.12152 0.38461,0.80951 0.10111,0.80951 -0.26571,0 -0.20716,0.39257 0.1148,0.76977 0.15873,0.18596 0.23047,0.39974 0.15943,0.47506 -0.071,0.0753 -0.36816,-0.14666 -0.66027,-0.49329 l -0.53112,-0.63024 0.0809,0.5843 c 0.0616,0.44541 0.0157,0.58432 -0.19317,0.58438 -0.21907,7e-5 -0.27404,-0.2216 -0.27404,-1.10511 z m 1.04278,-0.55342 c 0,-0.14924 -0.13686,-0.2993 -0.30414,-0.33346 -0.2134,-0.0436 -0.30415,0.0559 -0.30415,0.33346 0,0.27754 0.0908,0.37704 0.30415,0.33347 0.16728,-0.0342 0.30414,-0.18422 0.30414,-0.33347 z m -22.810947,1.49515 c -0.21508,-0.48691 -0.38844,-1.04323 -0.38526,-1.23628 0.005,-0.31774 0.0382,-0.30978 0.34759,0.084 0.188,0.23926 0.34182,0.59168 0.34182,0.78315 0,0.19147 0.11731,0.34813 0.26069,0.34813 0.1738,0 0.2607,-0.18427 0.2607,-0.55281 0,-0.52718 0.15633,-0.69418 0.40402,-0.43157 0.0629,0.0667 0.047,0.2118 -0.0353,0.32248 -0.0823,0.11067 -0.24411,0.51218 -0.35957,0.89224 -0.11546,0.38006 -0.26252,0.68762 -0.3268,0.68346 -0.0643,-0.004 -0.29284,-0.40592 -0.50791,-0.89283 z m 10.73201,0.32993 c 0,-0.2124 -0.13275,-0.62446 -0.29501,-0.91569 -0.33136,-0.59474 -0.31828,-0.62792 0.31036,-0.78736 0.55962,-0.14193 1.12817,0.25522 0.97423,0.68055 -0.15314,0.42313 -0.46819,0.37906 -0.46819,-0.0655 0,-0.20475 -0.11586,-0.36855 -0.26069,-0.36855 -0.29057,0 -0.33859,0.20398 -0.11062,0.4699 0.0825,0.0963 0.23489,0.44455 0.33855,0.77394 0.16966,0.53909 0.15468,0.59888 -0.15008,0.59888 -0.22784,0 -0.33855,-0.12629 -0.33855,-0.38618 z m -11.64445,-0.0636 c 0,-0.14604 0.0782,-0.31678 0.1738,-0.37942 0.0956,-0.0626 0.1738,0.0568 0.1738,0.26553 0,0.20868 -0.0782,0.37942 -0.1738,0.37942 -0.0956,0 -0.1738,-0.11949 -0.1738,-0.26553 z m 13.38243,-1.31122 c 0,-1.12599 0.0211,-1.19183 0.30954,-0.96743 1.06236,0.82638 1.42844,1.15671 1.42844,1.28894 0,0.29006 -0.44028,0.14389 -0.94051,-0.31224 -0.53774,-0.49031 -0.82904,-0.48323 -0.44237,0.0108 0.18805,0.24024 0.1892,0.32219 0.006,0.4421 -0.16077,0.10534 -0.16914,0.18356 -0.0294,0.2751 0.21297,0.13955 0.0945,0.47098 -0.16834,0.47098 -0.0899,0 -0.16353,-0.5437 -0.16353,-1.20821 z m -14.77281,0.87038 c 0,-0.0845 0.0587,-0.21573 0.13035,-0.2917 0.0717,-0.076 0.24877,-0.4592 0.39352,-0.85159 0.17447,-0.47298 0.33404,-0.66701 0.47342,-0.57568 0.26786,0.17552 -0.42986,1.87253 -0.76988,1.87253 -0.12508,0 -0.22741,-0.0691 -0.22741,-0.15356 z m -1.26883,-0.51607 c -0.0606,-0.0643 0.0448,-0.32567 0.23417,-0.58094 0.18939,-0.25528 0.31533,-0.49489 0.27988,-0.53248 -0.11011,-0.11675 -0.6356,0.15492 -0.6356,0.32859 0,0.0905 -0.1091,0.16456 -0.24244,0.16456 -0.25305,0 -0.46136,-1.2643 -0.31245,-1.89632 0.14594,-0.61942 0.46827,-0.18961 0.43508,0.58017 -0.0373,0.86503 0.098,0.92769 0.80551,0.37309 0.77952,-0.61105 0.91636,-0.26854 0.2995,0.74966 -0.55833,0.92159 -0.6661,1.02312 -0.86365,0.81367 z m 17.98807,-1.45308 -0.55366,-0.83281 0.61737,-0.31214 c 0.53675,-0.27138 0.63837,-0.27693 0.77823,-0.0425 0.0885,0.14831 0.16207,0.40579 0.16353,0.57216 0.001,0.16768 0.1963,0.35403 0.437147,0.41812 0.47708,0.12696 0.59625,0.47715 0.16238,0.47715 -0.14967,0 -0.418657,-0.0832 -0.597747,-0.18477 -0.18852,-0.10698 -0.36623,-0.11511 -0.42207,-0.0193 -0.0531,0.091 0.0204,0.213 0.16325,0.27112 0.31986,0.13014 0.34362,0.48577 0.0325,0.48577 -0.12498,0 -0.47638,-0.37476 -0.78089,-0.83281 z m 0.4152,-0.9629 c -0.18986,-0.2013 -0.32004,0.11883 -0.18373,0.4518 0.12925,0.31572 0.13861,0.31543 0.21063,-0.007 0.0414,-0.1853 0.0293,-0.38569 -0.0269,-0.44533 z m -19.80912,1.46008 c -0.0573,-0.0983 0.0492,-0.37401 0.23666,-0.6126 0.40304,-0.51291 0.4474,-0.39357 0.11001,0.29594 -0.13335,0.27251 -0.28935,0.415 -0.34667,0.31666 z m -1.84046,-1.40781 c -0.22766,-0.45102 -0.13686,-0.66702 0.81122,-1.9297 0.033,-0.0439 0.13444,-9.2e-4 0.22547,0.0956 0.10481,0.11113 -0.0237,0.39016 -0.35049,0.76087 -0.59378,0.67363 -0.63422,0.88547 -0.21635,1.13342 0.3636,0.21574 0.91693,-0.0512 0.91693,-0.44238 0,-0.14846 0.0782,-0.26993 0.1738,-0.26993 0.0956,0 0.1738,-0.12438 0.1738,-0.2764 0,-0.31842 0.28764,-0.37498 0.38192,-0.0751 0.0348,0.11072 -0.18805,0.48387 -0.49524,0.82922 -0.6753,0.75917 -1.29237,0.82554 -1.62106,0.17436 z m 23.111497,-0.28354 c -0.45446,-0.48185 -0.43999,-0.9532 0.0435,-1.41464 0.52792,-0.5039 0.82554,-0.66989 0.82554,-0.46044 0,0.0955 -0.15642,0.21702 -0.3476,0.27003 -0.4736,0.13131 -0.46737,1.06446 0.0102,1.52267 0.27713,0.26592 0.42402,0.298 0.65174,0.14232 0.29759,-0.20344 0.30844,-0.83737 0.0163,-0.95097 -0.0874,-0.034 -0.11161,-0.14305 -0.0537,-0.24234 0.11014,-0.18895 0.76592,0.33078 0.76592,0.60701 0,0.0845 -0.13469,0.32039 -0.29932,0.52425 -0.38373,0.47517 -1.16531,0.47619 -1.61245,0.002 z m -24.732577,-1.0296 -0.4857,-0.44295 0.57184,-0.78397 c 0.31452,-0.43118 0.59352,-0.81989 0.62,-0.86381 0.0265,-0.0439 0.14054,0.0181 0.25346,0.13785 0.1579,0.16741 0.077,0.35813 -0.35049,0.8257 -0.59475,0.65062 -0.71112,1.05115 -0.30537,1.05115 0.29123,0 0.51288,0.30215 0.31619,0.43103 -0.0738,0.0484 -0.3528,-0.11137 -0.61993,-0.355 z m 26.483167,-0.9301 c -0.43374,-0.58464 -0.43411,-0.60361 -0.0224,-1.12685 0.43617,-0.55435 1.28644,-0.55696 1.65103,-0.005 0.34712,0.52545 0.34104,0.78886 -0.0288,1.24679 -0.42651,0.52815 -1.16196,0.47534 -1.59984,-0.11488 z m 1.4569,-0.0413 c 0.14287,-0.47731 -0.0269,-0.85541 -0.50627,-1.12742 -0.48977,-0.2779 -0.78945,-0.12384 -0.78945,0.40586 0,0.81498 1.08661,1.4201 1.29572,0.72156 z M 85.454863,173.1737 c -0.26854,-0.28472 -0.24724,-0.45238 0.24579,-1.93461 0.11799,-0.35472 0.2712,-0.72787 0.34046,-0.82922 0.0693,-0.10135 0.22402,-0.51596 0.34389,-0.92136 0.33267,-1.12501 0.9747,-1.93537 1.53072,-1.93202 0.258,0.001 0.57696,0.0752 0.70878,0.16378 0.63038,0.42332 -0.63542,5.27847 -1.46405,5.61561 -0.51036,0.20764 -1.44017,0.11923 -1.70559,-0.16218 z m 7.05944,-0.13797 c -0.23541,-0.31687 -1.60942,-4.82834 -1.60942,-5.28442 0,-0.8424 1.4705,-0.93432 1.97173,-0.12325 0.14262,0.23078 0.35182,0.78386 0.46489,1.22908 0.11307,0.44521 0.39318,1.20198 0.62246,1.68172 0.54457,1.13941 0.52612,1.47741 -0.11788,2.16022 -0.56391,0.59789 -1.04698,0.72 -1.33178,0.33665 z m -12.01934,-3.27822 c -0.88155,-0.67707 -1.06307,-1.07393 -0.60963,-1.33284 0.18204,-0.10395 0.9432,-0.83998 1.69145,-1.63563 1.22317,-1.30065 1.4273,-1.44663 2.02287,-1.44663 0.37204,0 0.82714,0.14143 1.0382,0.32264 l 0.3758,0.32263 -0.57203,0.9212 c -1.01722,1.63812 -2.55593,3.40885 -2.96219,3.40885 -0.14029,0 -0.5833,-0.2521 -0.98447,-0.56022 z m 17.03234,-0.89475 c -0.20113,-0.21326 -0.43739,-0.38774 -0.52501,-0.38774 -0.0876,0 -0.18539,-0.0622 -0.21725,-0.1382 -0.082,-0.19554 -1.30915,-1.15144 -1.48017,-1.15296 -0.24631,-0.002 -0.92403,-1.20108 -0.92403,-1.63463 0,-0.22843 0.0797,-0.57316 0.17705,-0.76608 0.17396,-0.34463 0.18686,-0.34458 0.73864,0.003 0.30887,0.19442 1.20083,0.69659 1.98213,1.11594 1.59958,0.85855 1.925,1.16574 2.05546,1.94034 0.18141,1.07705 -1.08102,1.79014 -1.80682,1.0206 z m 8.948187,-0.72934 c -0.0504,-0.0865 0.10136,-0.25059 0.33734,-0.36459 0.29107,-0.14061 0.42904,-0.35668 0.42904,-0.67189 0,-0.63055 -0.44774,-0.59515 -1.21002,0.0957 -1.23127,1.11586 -2.20675,0.3306 -1.58053,-1.27233 0.17024,-0.43577 0.32817,-0.58168 0.58577,-0.54118 0.46525,0.0731 0.59827,0.51612 0.15497,0.51612 -0.42869,0 -0.77811,0.43246 -0.70008,0.86644 0.0766,0.42581 0.8036,0.54897 0.94439,0.15998 0.0576,-0.15914 0.20529,-0.28934 0.32822,-0.28934 0.12293,0 0.26853,-0.12438 0.32355,-0.2764 0.16497,-0.45583 1.06032,-0.3451 1.31672,0.16285 0.18029,0.35718 0.17925,0.56376 -0.006,1.10562 -0.21557,0.63209 -0.69735,0.89756 -0.92382,0.50905 z m -35.209747,-0.27511 c 0,-0.15098 -0.0524,-0.41927 -0.11644,-0.59621 -0.076,-0.20996 -0.05,-0.27818 0.0748,-0.1964 0.10517,0.0689 0.70503,-0.0535 1.33302,-0.2721 1.09416,-0.38084 1.14179,-0.4223 1.14179,-0.99387 0,-1.11473 -0.72972,-1.26193 -2.291,-0.46214 -0.40087,0.20535 -0.75327,0.37336 -0.78311,0.37336 -0.0298,0 -0.0542,-0.2122 -0.0542,-0.47155 0,-0.25935 0.0712,-0.42491 0.15817,-0.3679 0.087,0.057 0.68644,-0.0138 1.33208,-0.15726 l 1.17391,-0.26089 0.49279,0.52249 c 0.92313,0.97876 0.47129,1.937 -1.12896,2.39421 -0.46181,0.13194 -0.95062,0.35754 -1.08623,0.50133 -0.2129,0.22572 -0.24657,0.22393 -0.24657,-0.0131 z m 15.81559,-1.33668 c -1.92093,-0.7468 -2.72379,-1.76238 -3.16386,-4.0021 -0.37817,-1.92471 -0.38282,-2.78742 -0.0211,-3.91626 0.44812,-1.39848 1.26408,-2.50204 2.24068,-3.03047 2.74765,-1.48671 5.26408,-1.41507 7.29231,0.20761 1.62076,1.29668 2.25496,2.66312 2.25496,4.85847 0,1.49584 -0.16556,1.9542 -1.08623,3.00721 -0.11949,0.13666 -0.21725,0.30902 -0.21725,0.38302 0,0.074 -0.35123,0.5177 -0.78051,0.98598 -1.00579,1.09717 -2.02565,1.45155 -4.43342,1.54048 -1.00369,0.0371 -1.94219,0.0218 -2.08558,-0.0339 z m 4.43843,-1.56984 c 1.64026,-0.76928 3.2087,-3.47241 2.87404,-4.95324 -0.41988,-1.8579 -0.80676,-2.50469 -1.93146,-3.22908 -1.14682,-0.73864 -2.87057,-1.01373 -4.11366,-0.65649 -1.84782,0.53103 -3.18545,2.47946 -3.17102,4.619 0.0125,1.84785 0.54954,3.05599 1.73775,3.90891 0.52141,0.37429 1.18264,0.70931 1.46941,0.7445 0.91765,0.1126 2.41065,-0.0939 3.13494,-0.4336 z m -3.40042,-0.46645 c -1.29183,-0.91467 -2.43626,-2.66397 -2.42076,-3.70025 0.0199,-1.33288 1.00706,-3.0746 2.11761,-3.73637 1.46102,-0.87063 3.7123,-0.41882 4.96903,0.99723 0.50412,0.56803 0.90043,1.81308 0.90043,2.8288 0,1.21424 -1.03766,2.68298 -2.46897,3.49467 -0.91211,0.51726 -2.44925,0.57479 -3.09734,0.11592 z m 2.77347,-1.4397 c 0.27064,-0.14838 0.6969,-0.52789 0.94726,-0.84336 0.38926,-0.49048 0.4552,-0.7477 0.4552,-1.77562 0,-1.11237 -0.0425,-1.24708 -0.56923,-1.80559 -0.89152,-0.94523 -2.80361,-1.10339 -3.71072,-0.30691 -0.48768,0.4282 -0.93399,1.3643 -0.93399,1.95898 0,0.49967 0.46298,1.55035 0.99759,2.26393 0.54645,0.72939 1.94886,0.98285 2.81389,0.50857 z m -2.16702,-1.07155 c -0.45185,-0.41208 -0.84259,-1.75995 -0.65803,-2.26988 0.0453,-0.12508 0.38722,-0.45146 0.7599,-0.72529 0.58095,-0.42686 0.78692,-0.48048 1.44429,-0.37596 0.42168,0.067 0.88693,0.26337 1.03387,0.43627 0.70798,0.83304 0.48668,2.2606 -0.45579,2.94023 -0.73986,0.53353 -1.53555,0.53152 -2.12424,-0.005 z m 1.62438,-1.36083 c 0.0556,-0.41407 -0.48416,-0.75291 -0.83411,-0.5236 -0.20145,0.13201 -0.23473,0.70587 -0.0522,0.89944 0.25067,0.26578 0.83326,0.0187 0.88627,-0.37584 z m 14.595657,3.62067 c 0.0424,-0.30596 0.16569,-0.54505 0.27408,-0.5313 0.57905,0.0735 0.7695,-0.0588 0.87272,-0.60602 0.12015,-0.63695 -0.0139,-0.88406 -0.52257,-0.96321 -0.17977,-0.028 -0.31904,-0.14662 -0.30948,-0.26364 0.046,-0.56274 0.0776,-0.59955 0.31301,-0.36414 0.13392,0.13393 0.7987,0.60705 1.47728,1.05138 0.67859,0.44432 1.23379,0.85947 1.23379,0.92255 0,0.13832 -1.04163,0.49146 -1.99868,0.67762 -0.38235,0.0744 -0.85763,0.24723 -1.05617,0.38413 -0.34121,0.23528 -0.35677,0.21844 -0.28398,-0.30737 z m 2.29604,-0.99092 c 0,-0.24145 -0.35286,-0.4804 -0.7094,-0.4804 -0.0878,0 -0.15959,0.16585 -0.15959,0.36855 0,0.27026 0.11587,0.36854 0.4345,0.36854 0.25552,0 0.43449,-0.10574 0.43449,-0.25669 z m -29.882047,0.63707 c -0.26277,-0.27862 -0.36276,-0.57801 -0.32555,-0.97486 0.0719,-0.76657 0.78579,-1.03156 2.82865,-1.04994 1.89382,-0.017 3.09503,0.37205 3.01238,0.97576 -0.0342,0.24955 -0.23096,0.4244 -0.5734,0.50945 -0.28677,0.0712 -1.0039,0.25906 -1.59363,0.41741 -0.58972,0.15835 -1.49904,0.34109 -2.02071,0.40609 -0.82846,0.10324 -0.99647,0.0673 -1.32774,-0.28391 z m -7.13687,-0.50804 c 0,-0.21053 0.44239,-0.81645 1.02989,-1.4106 0.56643,-0.57284 0.97703,-1.04957 0.91243,-1.05939 -0.40962,-0.0623 -1.55428,0.0806 -1.81043,0.22591 -0.25026,0.142 -0.30569,0.0971 -0.30569,-0.24764 0,-0.40742 0.0508,-0.4211 1.56418,-0.4211 0.8603,0 1.56418,0.0733 1.56418,0.16292 0,0.0896 -0.43015,0.57685 -0.95588,1.08278 -0.52574,0.50593 -0.95589,1.00303 -0.95589,1.10466 0,0.18114 1.442,0.0619 2.00079,-0.16546 0.17229,-0.0701 0.25858,0.0102 0.25858,0.24056 0,0.31385 -0.12113,0.33929 -1.31179,0.27554 -1.07289,-0.0574 -1.37359,-0.0109 -1.65108,0.25532 -0.32579,0.3126 -0.33929,0.31086 -0.33929,-0.0435 z m 28.42859,-0.55804 c -1.82347,-0.68064 -2.3436,-1.10805 -2.35314,-1.93368 -0.008,-0.67581 0.52447,-0.97879 1.24905,-0.71098 0.29426,0.10876 0.74773,0.19775 1.00772,0.19775 0.75111,0 2.931927,0.82393 3.209187,1.21245 0.30822,0.43189 0.33949,1.39743 0.055,1.69903 -0.34287,0.36353 -1.34174,0.21705 -3.167837,-0.46457 z m 7.281617,-2.27553 c -0.44491,-0.24153 -0.74056,-0.94292 -0.89078,-2.11329 -0.10521,-0.81971 -0.0889,-0.88946 0.15753,-0.67419 0.20961,0.18308 0.53628,0.20008 1.37567,0.0716 0.60543,-0.0927 1.22702,-0.22599 1.3813,-0.29627 0.2151,-0.098 0.3063,0.009 0.39105,0.45816 0.1959,1.03853 0.11918,1.61429 -0.28079,2.10731 -0.43801,0.53991 -1.53807,0.77016 -2.13398,0.44667 z m 1.88221,-0.94077 c 0.17204,-0.21985 0.28935,-0.61348 0.2607,-0.87473 -0.0558,-0.50897 -0.24068,-0.53489 -1.92043,-0.26926 -0.57977,0.0917 -0.65175,0.16167 -0.65175,0.63379 0,1.04646 1.61321,1.40254 2.31148,0.5102 z m -34.664297,-0.24143 c -0.15733,-0.16682 -2.60191,-0.39146 -2.68621,-0.24685 -0.1975,0.33883 -0.35086,0.11852 -0.27898,-0.40077 0.08,-0.57782 0.20196,-0.67283 0.48226,-0.37564 0.0919,0.0974 0.77219,0.2011 1.51175,0.23034 1.12696,0.0446 1.34468,0.10361 1.34493,0.36476 3.5e-4,0.31153 -0.23238,0.57806 -0.37375,0.42816 z m 9.58532,-1.15932 c -0.14338,-0.0515 -0.45622,-0.23476 -0.69519,-0.40721 -0.45167,-0.32594 -1.66504,-0.79208 -2.87513,-1.10456 -1.08274,-0.27959 -1.46981,-0.76676 -1.46981,-1.84989 0,-0.81048 0.0464,-0.92302 0.42195,-1.02295 0.41046,-0.10923 1.14076,0.0397 1.31602,0.2683 0.0478,0.0624 0.68881,0.44506 1.42448,0.85045 0.73566,0.4054 1.47865,0.86379 1.65107,1.01865 0.38585,0.34654 0.9218,1.33798 0.9218,1.70522 0,0.36554 -0.37424,0.65731 -0.69519,0.54199 z m 13.87517,-0.71112 c -0.48964,-0.14902 -0.50161,-0.58575 -0.0269,-0.98166 0.24751,-0.20642 0.55679,-0.37532 0.68728,-0.37532 0.13049,0 0.23726,-0.085 0.23726,-0.18883 0,-0.10385 0.17597,-0.27167 0.39104,-0.37292 0.21508,-0.10124 0.70388,-0.38743 1.08624,-0.63597 0.38235,-0.24853 0.83206,-0.505 0.99934,-0.56993 0.167277,-0.0649 0.304137,-0.18162 0.304137,-0.25933 0,-0.0777 0.15506,-0.18428 0.34457,-0.23682 0.46539,-0.12904 1.39341,0.9883 1.39341,1.67767 0,0.60979 -0.59214,1.03352 -1.72028,1.23102 -0.420407,0.0736 -1.006977,0.24094 -1.303477,0.37188 -0.62602,0.27644 -1.9729,0.46796 -2.39262,0.34021 z m -26.21215,-0.83781 c 0.005,-0.4687 0.26596,-0.61146 1.14891,-0.62888 1.50751,-0.0298 1.61601,-0.16927 0.70512,-0.9067 -0.43618,-0.35311 -0.90773,-0.64203 -1.0479,-0.64203 -0.16929,0 -0.22434,-0.12373 -0.16396,-0.36854 0.12146,-0.49245 0.20931,-0.46523 0.91098,0.28226 0.32996,0.3515 0.65431,0.6391 0.72077,0.6391 0.16258,0 1.19937,0.97175 1.19937,1.12413 0,0.0664 -0.64522,0.22117 -1.43383,0.34395 -0.7886,0.12278 -1.57069,0.26289 -1.73797,0.31135 -0.17843,0.0517 -0.30305,-0.0122 -0.30149,-0.15464 z m 34.174997,-0.7246 c -0.32381,-1.06303 -0.3652,-1.52594 -0.12222,-1.36671 0.2049,0.13426 1.6639,-0.23393 2.32789,-0.58747 0.55287,-0.29438 0.54835,-0.29599 0.70689,0.25174 0.0938,0.32396 0.0427,0.39619 -0.28255,0.39926 -0.21837,0.002 -0.82719,0.1202 -1.35293,0.26252 -1.13786,0.30803 -1.33036,0.77367 -0.62779,1.51857 l 0.43819,0.46461 h -0.40019 c -0.32814,0 -0.45188,-0.16969 -0.68729,-0.94252 z m -10.695287,-1.2184 -0.37636,-0.32674 0.4145,-0.64495 c 0.22798,-0.35472 0.4737,-0.84415 0.54605,-1.08761 0.2259,-0.76016 1.14649,-2.30287 1.62872,-2.72939 0.53653,-0.47454 1.01938,-0.51946 1.49384,-0.13897 0.18555,0.1488 0.47883,0.27055 0.65174,0.27055 0.46038,0 0.38919,0.55947 -0.16357,1.28542 -0.95889,1.25932 -3.09446,3.47862 -3.45173,3.58708 -0.22548,0.0684 -0.51185,-0.0146 -0.74319,-0.21539 z m -8.38325,-2.03125 c -0.63053,-0.8868 -1.32996,-1.96805 -1.5543,-2.40277 -0.40492,-0.78466 -0.40553,-0.79502 -0.084,-1.4281 0.24954,-0.49129 0.43444,-0.63771 0.80532,-0.63771 0.47437,0 1.20183,0.71453 1.20183,1.18045 0,0.11517 0.46925,0.94533 1.04279,1.8448 0.57353,0.89947 1.04278,1.79458 1.04278,1.98913 0,0.63642 -0.33632,1.06657 -0.83393,1.06657 -0.3928,0 -0.67069,-0.27649 -1.62052,-1.61237 z m -11.11744,1.1558 c -0.46093,-0.47448 -2.24543,-1.40676 -2.44386,-1.27673 -0.26021,0.17051 -0.0349,-0.82803 0.27418,-1.21504 0.12141,-0.15202 0.26928,-0.42152 0.3286,-0.59888 0.1137,-0.33993 0.64016,-0.45359 0.64016,-0.1382 0,0.10135 -0.0762,0.18427 -0.16933,0.18427 -0.0931,0 -0.28668,0.2406 -0.43011,0.53467 -0.24988,0.51234 -0.2416,0.54799 0.19831,0.85359 0.43858,0.30469 0.46979,0.30345 0.69912,-0.0279 0.13203,-0.19077 0.20452,-0.49196 0.1611,-0.66932 -0.0891,-0.36404 0.0291,-0.40206 0.4099,-0.13188 0.23027,0.16336 0.22849,0.21143 -0.0153,0.41179 -0.47734,0.39239 -0.47796,0.76219 -0.002,1.10091 0.60066,0.42731 0.6433,0.41621 0.95631,-0.24906 0.19568,-0.41588 0.22129,-0.66821 0.0935,-0.92135 -0.11653,-0.23088 -0.11726,-0.34861 -0.002,-0.34861 0.0956,0 0.2507,0.15235 0.34469,0.33856 0.12879,0.25515 0.0515,0.59321 -0.3137,1.372 -0.41361,0.88205 -0.52049,0.99648 -0.72962,0.7812 z m 29.401047,-0.32658 c -0.11599,-0.32266 -0.0762,-0.4515 0.17939,-0.58097 0.40939,-0.20737 0.42186,-0.72724 0.0291,-1.21357 -0.3362,-0.41631 -0.84295,-0.48913 -0.97645,-0.14031 -0.0663,0.17334 -0.13377,0.16194 -0.27252,-0.0461 -0.28037,-0.42033 -0.24146,-0.45993 0.46205,-0.4701 0.35846,-0.005 1.14055,-0.0781 1.73798,-0.16201 0.78647,-0.11047 1.08624,-0.0941 1.08624,0.0594 0,0.11662 -0.39105,0.73961 -0.86899,1.38443 -0.47794,0.64482 -0.86899,1.26496 -0.86899,1.37808 0,0.36443 -0.3541,0.21875 -0.50783,-0.20894 z m 1.19691,-1.78453 c 0.2514,-0.49807 0.23527,-0.52504 -0.25458,-0.42576 -0.41492,0.0841 -0.56611,0.39696 -0.31863,0.65934 0.19977,0.21182 0.38687,0.13557 0.57321,-0.23358 z m -14.731937,1.79374 c -0.25338,-0.26864 -0.27302,-0.82051 -0.0348,-0.97663 0.10011,-0.0656 0.1738,-1.04363 0.1738,-2.30681 0,-2.15448 0.008,-2.20123 0.47794,-2.66709 0.37706,-0.37408 0.6247,-0.46317 1.17314,-0.42207 l 0.69519,0.0521 -0.0366,0.82922 c -0.0352,0.79874 -0.3188,2.20159 -0.8389,4.15019 -0.17998,0.67434 -0.38493,1.01182 -0.75536,1.24383 -0.60487,0.37883 -0.59045,0.37719 -0.85447,0.0973 z m -14.38328,-2.32557 c 0.21893,-0.40129 -1.9204,-2.25509 -2.22713,-1.92988 -0.0599,0.0635 -0.10893,0.0251 -0.10893,-0.0854 0,-0.2763 0.83123,-1.30036 1.24698,-1.53627 0.4868,-0.27623 1.18619,0.23881 1.18619,0.87353 0,0.46825 0.0219,0.47732 0.95589,0.39521 0.52573,-0.0462 0.95588,-0.0624 0.95588,-0.036 0,0.0264 -0.1229,0.17837 -0.27311,0.33763 -0.18221,0.1932 -0.59193,0.28957 -1.23106,0.28957 -1.07862,0 -1.21788,0.33368 -0.26583,0.63699 0.67194,0.21407 0.67928,0.28283 0.0909,0.85113 -0.25439,0.2457 -0.40279,0.33724 -0.32978,0.20342 z m -0.42429,-2.40713 c 0,-0.62602 -0.50392,-0.8624 -0.99125,-0.46498 -0.29563,0.24107 -0.28913,0.27411 0.12227,0.62136 0.60918,0.5142 0.86898,0.46745 0.86898,-0.15638 z m 25.957507,0.98332 c -0.56895,-0.55906 -0.61993,-1.46371 -0.12265,-2.17642 0.35959,-0.51537 0.726,-0.66489 1.63834,-0.66859 0.6235,-0.002 1.37723,0.58248 1.37723,1.06892 0,0.12016 0.081,0.21846 0.17991,0.21846 0.12198,0 0.12001,0.11868 -0.006,0.36855 -0.27929,0.55332 -0.64671,0.46473 -0.57321,-0.13821 0.0818,-0.67057 -0.11082,-0.93741 -0.77874,-1.07905 -0.47391,-0.10049 -0.63969,-0.0248 -1.16449,0.53162 -0.33655,0.35683 -0.61191,0.77027 -0.61191,0.91877 0,0.4219 0.66105,1.20796 1.0897,1.29574 0.3343,0.0685 0.32311,0.0828 -0.0814,0.10447 -0.28634,0.0153 -0.65502,-0.1577 -0.94665,-0.44426 z m -23.480887,-1.49539 c -0.40295,-0.1724 -0.24929,-0.63058 0.1738,-0.51821 0.5205,0.13825 1.0926,-0.31045 0.93855,-0.73609 -0.1006,-0.27795 -0.25415,-0.30587 -1.08022,-0.19644 -1.1525,0.15267 -1.46596,-0.0487 -1.46596,-0.94201 0,-0.49243 0.0896,-0.66306 0.41761,-0.79529 0.22969,-0.0926 0.46717,-0.25336 0.52774,-0.35726 0.0671,-0.11518 0.24331,-0.0477 0.45137,0.1729 0.45946,0.48715 0.4317,0.55606 -0.17238,0.42797 -0.69356,-0.14707 -1.23851,0.36635 -0.83874,0.79021 0.21805,0.23119 0.38558,0.24178 1.0089,0.0638 1.00163,-0.28596 1.56057,0.006 1.55888,0.81547 -8.7e-4,0.43525 -0.13524,0.6645 -0.5756,0.98235 -0.60709,0.43819 -0.60505,0.43756 -0.94395,0.29257 z m 19.77175,-1.90827 c -0.5245,-0.40357 -0.83734,-0.73477 -0.69519,-0.73599 0.32337,-0.003 1.56193,-1.90987 1.56193,-2.40499 0,-0.35172 0.0219,-0.35433 0.54852,-0.0656 0.53622,0.29399 0.75177,0.45698 1.295217,0.97932 0.21738,0.20894 0.22439,0.28576 0.0374,0.40995 -0.15159,0.10068 -0.2806,0.0359 -0.37815,-0.19003 -0.0814,-0.18857 -0.316807,-0.42438 -0.523067,-0.52402 -0.30719,-0.1484 -0.43281,-0.0999 -0.69452,0.26793 -0.31023,0.43606 -0.31018,0.45674 0.002,0.71243 0.17665,0.14483 0.45805,0.22987 0.62533,0.18898 0.3849,-0.0941 0.38977,0.14257 0.0112,0.54398 -0.27475,0.29131 -0.30086,0.28799 -0.41995,-0.0533 -0.19429,-0.55687 -0.62975,-0.64189 -0.93341,-0.18224 -0.146,0.221 -0.26545,0.50981 -0.26545,0.64179 0,0.28901 0.83088,0.65433 1.17228,0.51542 0.16123,-0.0656 0.22376,0.009 0.18528,0.2207 -0.0973,0.53588 -0.53055,0.444 -1.5291,-0.32433 z m -17.34569,0.0638 c 0.0907,-0.30304 -1.29068,-2.45585 -1.57983,-2.46215 -0.21755,-0.005 -0.1883,-0.0883 0.12891,-0.36854 0.47232,-0.41719 0.69112,-0.4612 0.65663,-0.13208 -0.0364,0.34759 1.16064,2.33824 1.40969,2.34424 0.2466,0.006 0.30365,0.55804 0.0577,0.55804 -0.0878,0 -0.28649,0.0516 -0.44161,0.11474 -0.1551,0.0631 -0.25926,0.0387 -0.23146,-0.0542 z m 1.40961,-0.86958 c 0.13275,-0.3668 -0.6509,-2.495 -1.03574,-2.8128 -0.21136,-0.17454 -0.0788,-0.28383 0.73616,-0.60714 1.24081,-0.49223 1.88183,-0.37643 2.34158,0.42298 0.66672,1.15932 0.31982,2.0855 -1.02509,2.73686 -0.44648,0.21623 -0.88373,0.43448 -0.97166,0.48499 -0.0879,0.0505 -0.1083,-0.0507 -0.0452,-0.22489 z m 1.50958,-0.98465 c 0.44567,-0.60072 0.36627,-1.37321 -0.20773,-2.02103 -0.41503,-0.4684 -0.84597,-0.53508 -1.34077,-0.20746 -0.31828,0.21075 -0.31782,0.23655 0.0191,1.05956 0.18991,0.46395 0.41405,1.03012 0.49808,1.25816 0.20456,0.55509 0.57726,0.52284 1.03135,-0.0892 z m 11.46968,0.22743 c -0.23897,-0.14484 -0.57136,-0.26629 -0.73864,-0.26988 -0.37917,-0.008 -0.38855,0.0637 0.14472,-1.10835 0.24688,-0.54259 0.46195,-1.26458 0.47795,-1.60442 0.0275,-0.58506 0.0568,-0.61176 0.55047,-0.50226 0.74329,0.16487 1.54724,0.72363 1.82074,1.26546 0.47867,0.94831 -0.46261,2.51044 -1.49996,2.48933 -0.17643,-0.004 -0.5163,-0.12504 -0.75528,-0.26988 z m 1.58524,-1.00622 c 0.21583,-0.48642 0.24173,-0.76303 0.10919,-1.16616 -0.25633,-0.7796 -1.34683,-1.08533 -1.34683,-0.37759 0,0.14674 -0.1595,0.63803 -0.35445,1.09175 -0.19495,0.45372 -0.30508,0.90964 -0.24474,1.01315 0.0603,0.10351 0.43464,0.16308 0.83179,0.13236 0.63181,-0.0489 0.75747,-0.13557 1.00504,-0.69351 z m -11.22096,0.14787 c 0.14589,-0.48238 0.31152,-1.12559 0.61703,-2.39619 0.14237,-0.59211 0.27955,-0.82932 0.44148,-0.76344 0.12921,0.0526 0.23492,0.16377 0.23492,0.24711 0,0.22226 1.35072,2.34109 1.59405,2.50055 0.14441,0.0946 0.10528,0.17868 -0.1283,0.27567 -0.58643,0.24348 -0.72452,0.17914 -0.83139,-0.38738 -0.1707,-0.90495 -1.24125,-0.61647 -1.3607,0.36666 -0.0328,0.27008 -0.18775,0.48548 -0.37668,0.52368 -0.26531,0.0536 -0.29831,-0.01 -0.19041,-0.36666 z m 1.39893,-1.55225 c -0.058,-0.16031 -0.1055,-0.36761 -0.1055,-0.46067 0,-0.0931 -0.11731,-0.1692 -0.26069,-0.1692 -0.16221,0 -0.2607,0.17403 -0.2607,0.46067 0,0.34563 0.0915,0.46068 0.36619,0.46068 0.26251,0 0.33632,-0.0825 0.2607,-0.29148 z m 2.80513,1.45025 c -0.5605,-0.0648 -0.62915,-0.12117 -0.48811,-0.40058 0.19931,-0.39486 0.28641,-2.64545 0.11383,-2.94151 -0.19069,-0.32714 1.38765,-0.2664 2.07592,0.0799 0.65053,0.3273 0.88109,0.98799 0.70065,2.00778 -0.17022,0.96203 -1.03343,1.41278 -2.40229,1.25442 z m 1.15356,-0.49306 c 0.42342,-0.18757 0.60542,-0.40595 0.68355,-0.82014 0.16803,-0.89074 -0.15789,-1.62713 -0.77837,-1.75871 -0.29101,-0.0617 -0.59929,-0.0662 -0.68506,-0.01 -0.17918,0.11742 -0.21481,2.5364 -0.0401,2.72166 0.15324,0.16248 0.15354,0.16243 0.81996,-0.1328 z"
         id="path4226"
         clip-path="url(#clipPath4430)"
         transform="matrix(1,0,0,0.94237563,79.863474,-110.50218)" />
      <text
         xml:space="preserve"
         style="font-style:normal;font-weight:normal;font-size:9.21674px;line-height:1.25;font-family:sans-serif;fill:#093d71;fill-opacity:1;stroke:#083c71;stroke-width:0.288023;stroke-opacity:1"
         x="31.452724"
         y="32.677277"
         id="text8480"
         transform="scale(0.93094977,1.0741718)"><tspan
           sodipodi:role="line"
           id="tspan8478"
           style="font-size:9.21674px;fill:#093d71;fill-opacity:1;stroke:#083c71;stroke-width:0.288023;stroke-opacity:1"
           x="31.452724"
           y="32.677277">Universidad de Caldas</tspan></text>
      <path
         style="fill:#d6b861;fill-opacity:1;stroke:#d6b861;stroke-width:0.254714;stroke-linecap:butt;stroke-linejoin:miter;stroke-miterlimit:4;stroke-dasharray:none;stroke-opacity:1"
         d="m 28.542199,59.023319 c -9.202305,-0.03932 -9.202305,31.419192 0,31.738962 H 133.15292 c 9.92968,-0.31977 11.22219,-31.869311 0,-31.738962 z"
         id="path17493"
         sodipodi:nodetypes="ccccc" />
      <g
         id="g59223"
         transform="translate(-0.52916667,-0.09321688)">
        <text
           xml:space="preserve"
           style="font-style:normal;font-weight:normal;font-size:4.47436px;line-height:1.25;font-family:sans-serif;fill:#093d71;fill-opacity:1;stroke:#093d71;stroke-width:0.239697;stroke-opacity:1"
           x="109.93903"
           y="104.16294"
           id="text23173"
           transform="scale(0.97195852,1.0288505)"><tspan
             sodipodi:role="line"
             id="tspan23171"
             style="font-style:normal;font-variant:normal;font-weight:normal;font-stretch:normal;font-size:4.47436px;font-family:Arial;-inkscape-font-specification:Arial;fill:#093d71;fill-opacity:1;stroke:#093d71;stroke-width:0.239697;stroke-opacity:1"
             x="109.93903"
             y="104.16294">Prof. Luis Eduardo López-Montenegro, PhD.</tspan></text>
        <text
           xml:space="preserve"
           style="font-style:normal;font-weight:normal;font-size:4.47436px;line-height:1.25;font-family:sans-serif;display:inline;fill:#d6b861;fill-opacity:1;stroke:#d6b861;stroke-width:0.239697;stroke-opacity:1"
           x="109.99142"
           y="98.521614"
           id="text23173-55"
           transform="scale(0.97195852,1.0288505)"><tspan
             sodipodi:role="line"
             id="tspan23171-7"
             style="font-style:normal;font-variant:normal;font-weight:normal;font-stretch:normal;font-size:4.47436px;font-family:Arial;-inkscape-font-specification:Arial;fill:#d6b861;fill-opacity:1;stroke:#d6b861;stroke-width:0.239697;stroke-opacity:1"
             x="109.99142"
             y="98.521614">Profesor coordinador:.</tspan></text>
        <text
           xml:space="preserve"
           style="font-style:normal;font-weight:normal;font-size:4.47436px;line-height:1.25;font-family:sans-serif;fill:#093d71;fill-opacity:1;stroke:#093d71;stroke-width:0.239697;stroke-opacity:1"
           x="109.96056"
           y="109.94535"
           id="text23173-7"
           transform="scale(0.97195852,1.0288505)"><tspan
             sodipodi:role="line"
             id="tspan23171-5"
             style="font-style:normal;font-variant:normal;font-weight:normal;font-stretch:normal;font-size:4.47436px;font-family:Arial;-inkscape-font-specification:Arial;fill:#093d71;fill-opacity:1;stroke:#093d71;stroke-width:0.239697;stroke-opacity:1"
             x="109.96056"
             y="109.94535">eduardo.lopez@ucaldas.edu.co</tspan></text>
        <text
           xml:space="preserve"
           style="font-style:normal;font-weight:normal;font-size:4.47436px;line-height:1.25;font-family:sans-serif;fill:#093d71;fill-opacity:1;stroke:#093d71;stroke-width:0.239697;stroke-opacity:1"
           x="110.07555"
           y="116.05408"
           id="text23173-5"
           transform="scale(0.97195852,1.0288505)"><tspan
             sodipodi:role="line"
             id="tspan23171-4"
             style="font-style:normal;font-variant:normal;font-weight:normal;font-stretch:normal;font-size:4.47436px;font-family:Arial;-inkscape-font-specification:Arial;fill:#093d71;fill-opacity:1;stroke:#093d71;stroke-width:0.239697;stroke-opacity:1"
             x="110.07555"
             y="116.05408">Departamento de Matemáticas.</tspan></text>
        <text
           xml:space="preserve"
           style="font-style:normal;font-weight:normal;font-size:4.47436px;line-height:1.25;font-family:sans-serif;fill:#093d71;fill-opacity:1;stroke:#093d71;stroke-width:0.239697;stroke-opacity:1"
           x="110.07555"
           y="122.2863"
           id="text23173-1"
           transform="scale(0.97195852,1.0288505)"><tspan
             sodipodi:role="line"
             id="tspan23171-42"
             style="font-style:normal;font-variant:normal;font-weight:normal;font-stretch:normal;font-size:4.47436px;font-family:Arial;-inkscape-font-specification:Arial;fill:#093d71;fill-opacity:1;stroke:#093d71;stroke-width:0.239697;stroke-opacity:1"
             x="110.07555"
             y="122.2863">Manizales, diciembre 11 de 2023</tspan></text>
      </g>
      <text
         xml:space="preserve"
         style="font-style:normal;font-weight:normal;font-size:6.12435px;line-height:1.25;font-family:sans-serif;fill:#093d71;fill-opacity:1;stroke:none;stroke-width:0.255181"
         x="25.408665"
         y="66.635696"
         id="text51647"
         transform="scale(0.96446449,1.0368448)"><tspan
           sodipodi:role="line"
           id="tspan51645"
           style="font-style:normal;font-variant:normal;font-weight:normal;font-stretch:normal;font-size:6.12435px;font-family:'Comic Sans MS';-inkscape-font-specification:'Comic Sans MS';fill:#093d71;fill-opacity:1;stroke-width:0.255181"
           x="25.408665"
           y="66.635696">Semillero de Investigación en Ecuaciones</tspan></text>
      <text
         xml:space="preserve"
         style="font-style:normal;font-weight:normal;font-size:6.12435px;line-height:1.25;font-family:sans-serif;display:inline;fill:#093d71;fill-opacity:1;stroke:none;stroke-width:0.255181"
         x="32.394199"
         y="75.024284"
         id="text51647-1"
         transform="scale(0.96446449,1.0368448)"><tspan
           sodipodi:role="line"
           id="tspan51645-8"
           style="font-style:normal;font-variant:normal;font-weight:normal;font-stretch:normal;font-size:6.12435px;font-family:'Comic Sans MS';-inkscape-font-specification:'Comic Sans MS';fill:#093d71;fill-opacity:1;stroke-width:0.255181"
           x="32.394199"
           y="75.024284">Diferenciales Ordinarias con Python</tspan></text>
      <text
         xml:space="preserve"
         style="font-style:normal;font-weight:normal;font-size:6.12435px;line-height:1.25;font-family:sans-serif;display:inline;fill:#093d71;fill-opacity:1;stroke:none;stroke-width:0.255181"
         x="70.213905"
         y="83.513054"
         id="text51647-4"
         transform="scale(0.96446449,1.0368448)"><tspan
           sodipodi:role="line"
           id="tspan51645-5"
           style="font-style:normal;font-variant:normal;font-weight:normal;font-stretch:normal;font-size:6.12435px;font-family:'Comic Sans MS';-inkscape-font-specification:'Comic Sans MS';fill:#093d71;fill-opacity:1;stroke-width:0.255181"
           x="70.213905"
           y="83.513054">SIEDOPy</tspan></text>
      <g
         id="g59211"
         transform="translate(-3.6666667e-8,0.1550706)">
        <text
           xml:space="preserve"
           style="font-style:normal;font-weight:normal;font-size:4.47436px;line-height:1.25;font-family:sans-serif;display:inline;fill:#093d71;fill-opacity:1;stroke:#093d71;stroke-width:0.239697;stroke-opacity:1"
           x="27.808908"
           y="103.41279"
           id="text23173-93"
           transform="scale(0.97195852,1.0288505)"><tspan
             sodipodi:role="line"
             id="tspan23171-78"
             style="font-style:normal;font-variant:normal;font-weight:normal;font-stretch:normal;font-size:4.47436px;font-family:Arial;-inkscape-font-specification:Arial;fill:#093d71;fill-opacity:1;stroke:#093d71;stroke-width:0.239697;stroke-opacity:1"
             x="27.808908"
             y="103.41279">Jackeline Rivera A.</tspan></text>
        <text
           xml:space="preserve"
           style="font-style:normal;font-weight:normal;font-size:4.47436px;line-height:1.25;font-family:sans-serif;display:inline;fill:#093d71;fill-opacity:1;stroke:#093d71;stroke-width:0.239697;stroke-opacity:1"
           x="27.808908"
           y="108.32365"
           id="text23173-93-7"
           transform="scale(0.97195852,1.0288505)"><tspan
             sodipodi:role="line"
             id="tspan23171-78-4"
             style="font-style:normal;font-variant:normal;font-weight:normal;font-stretch:normal;font-size:4.47436px;font-family:Arial;-inkscape-font-specification:Arial;fill:#093d71;fill-opacity:1;stroke:#093d71;stroke-width:0.239697;stroke-opacity:1"
             x="27.808908"
             y="108.32365">Milton Pablo Arias R.</tspan></text>
        <text
           xml:space="preserve"
           style="font-style:normal;font-weight:normal;font-size:4.47436px;line-height:1.25;font-family:sans-serif;display:inline;fill:#093d71;fill-opacity:1;stroke:#093d71;stroke-width:0.239697;stroke-opacity:1"
           x="27.808908"
           y="113.2345"
           id="text23173-93-4"
           transform="scale(0.97195852,1.0288505)"><tspan
             sodipodi:role="line"
             id="tspan23171-78-8"
             style="font-style:normal;font-variant:normal;font-weight:normal;font-stretch:normal;font-size:4.47436px;font-family:Arial;-inkscape-font-specification:Arial;fill:#093d71;fill-opacity:1;stroke:#093d71;stroke-width:0.239697;stroke-opacity:1"
             x="27.808908"
             y="113.2345">Daniel Felipe Franco R.</tspan></text>
        <text
           xml:space="preserve"
           style="font-style:normal;font-weight:normal;font-size:4.47436px;line-height:1.25;font-family:sans-serif;display:inline;fill:#093d71;fill-opacity:1;stroke:#093d71;stroke-width:0.239697;stroke-opacity:1"
           x="27.808908"
           y="118.14537"
           id="text23173-93-7-8"
           transform="scale(0.97195852,1.0288505)"><tspan
             sodipodi:role="line"
             id="tspan23171-78-4-0"
             style="font-style:normal;font-variant:normal;font-weight:normal;font-stretch:normal;font-size:4.47436px;font-family:Arial;-inkscape-font-specification:Arial;fill:#093d71;fill-opacity:1;stroke:#093d71;stroke-width:0.239697;stroke-opacity:1"
             x="27.808908"
             y="118.14537">David Rincón Toro.</tspan></text>
        <text
           xml:space="preserve"
           style="font-style:normal;font-weight:normal;font-size:4.47436px;line-height:1.25;font-family:sans-serif;display:inline;fill:#d6b861;fill-opacity:1;stroke:#d6b861;stroke-width:0.239697;stroke-opacity:1"
           x="27.963223"
           y="97.771461"
           id="text23173-55-8"
           transform="scale(0.97195852,1.0288505)"><tspan
             sodipodi:role="line"
             id="tspan23171-7-6"
             style="font-style:normal;font-variant:normal;font-weight:normal;font-stretch:normal;font-size:4.47436px;font-family:Arial;-inkscape-font-specification:Arial;fill:#d6b861;fill-opacity:1;stroke:#d6b861;stroke-width:0.239697;stroke-opacity:1"
             x="27.963223"
             y="97.771461">Estudiantes:.</tspan></text>
        <text
           xml:space="preserve"
           style="font-style:normal;font-weight:normal;font-size:4.52967px;line-height:1.25;font-family:sans-serif;display:inline;fill:#093d71;fill-opacity:1;stroke:#093d71;stroke-width:0.24266;stroke-opacity:1"
           x="27.535542"
           y="123.07603"
           id="text23173-93-3"
           transform="scale(0.97195852,1.0288505)"><tspan
             sodipodi:role="line"
             id="tspan23171-78-47"
             style="font-style:normal;font-variant:normal;font-weight:normal;font-stretch:normal;font-size:4.52967px;font-family:Arial;-inkscape-font-specification:Arial;fill:#093d71;fill-opacity:1;stroke:#093d71;stroke-width:0.24266;stroke-opacity:1"
             x="27.535542"
             y="123.07603">Over Haider Castrillon V.</tspan></text>
      </g>
    </g>
  </g>
  <g
     inkscape:groupmode="layer"
     id="layer3"
     inkscape:label="Capa 2"
     style="display:none">
    <g
       id="g59063">
      <rect
         style="fill:none;stroke:#0a3b71;stroke-width:0.681316;stroke-miterlimit:4;stroke-dasharray:none;stroke-opacity:1"
         id="rect846-3"
         width="179.45337"
         height="121.07921"
         x="16.326105"
         y="13.304561" />
      <text
         xml:space="preserve"
         style="font-style:normal;font-weight:normal;font-size:4.47436px;line-height:1.25;font-family:sans-serif;fill:#093d71;fill-opacity:1;stroke:#093d71;stroke-width:0.239697;stroke-opacity:1"
         x="18.138012"
         y="129.5538"
         id="text23173-1-9"
         transform="scale(0.97195852,1.0288505)"><tspan
           sodipodi:role="line"
           id="tspan23171-42-9"
           style="font-style:normal;font-variant:normal;font-weight:normal;font-stretch:normal;font-size:4.47436px;font-family:Arial;-inkscape-font-specification:Arial;fill:#093d71;fill-opacity:1;stroke:#093d71;stroke-width:0.239697;stroke-opacity:1"
           x="18.138012"
           y="129.5538">Semillero de Investigación ALTENUA - SIEDOPy, Universidad de Caldas</tspan></text>
    </g>
  </g>
</svg>
